<mxfile host="65bd71144e">
    <diagram id="_KvcSXfDCBueZoNZzP3M" name="PÃ¡gina-1">
        <mxGraphModel dx="650" dy="409" grid="1" gridSize="10" guides="1" tooltips="1" connect="1" arrows="1" fold="1" page="1" pageScale="1" pageWidth="827" pageHeight="1169" math="0" shadow="0">
            <root>
                <mxCell id="0"/>
                <mxCell id="1" parent="0"/>
                <mxCell id="4" value="" style="edgeStyle=none;html=1;" edge="1" parent="1" source="2">
                    <mxGeometry relative="1" as="geometry">
                        <mxPoint x="340" y="170" as="targetPoint"/>
                    </mxGeometry>
                </mxCell>
                <mxCell id="2" value="INICIO" style="ellipse;whiteSpace=wrap;html=1;fillColor=#0050ef;fontColor=#ffffff;strokeColor=#001DBC;" vertex="1" parent="1">
                    <mxGeometry x="280" y="30" width="120" height="80" as="geometry"/>
                </mxCell>
                <mxCell id="6" value="" style="edgeStyle=none;html=1;" edge="1" parent="1" target="5">
                    <mxGeometry relative="1" as="geometry">
                        <mxPoint x="340" y="230" as="sourcePoint"/>
                    </mxGeometry>
                </mxCell>
                <mxCell id="9" value="" style="edgeStyle=none;html=1;startArrow=none;" edge="1" parent="1" source="15" target="8">
                    <mxGeometry relative="1" as="geometry">
                        <Array as="points"/>
                    </mxGeometry>
                </mxCell>
                <mxCell id="11" value="" style="edgeStyle=none;html=1;" edge="1" parent="1" source="5" target="10">
                    <mxGeometry relative="1" as="geometry">
                        <Array as="points">
                            <mxPoint x="160" y="330"/>
                        </Array>
                    </mxGeometry>
                </mxCell>
                <mxCell id="5" value="&lt;span style=&quot;color: rgb(240 , 240 , 240)&quot;&gt;nota1+nota2+nota3&lt;/span&gt;&lt;br style=&quot;color: rgb(240 , 240 , 240)&quot;&gt;&lt;span style=&quot;color: rgb(240 , 240 , 240)&quot;&gt;nota4+nota5 /5&lt;/span&gt;" style="rhombus;whiteSpace=wrap;html=1;fillColor=#6a00ff;fontColor=#ffffff;strokeColor=#3700CC;" vertex="1" parent="1">
                    <mxGeometry x="264" y="270" width="151" height="120" as="geometry"/>
                </mxCell>
                <mxCell id="8" value="&amp;lt;30" style="rhombus;whiteSpace=wrap;html=1;fillColor=#a20025;fontColor=#ffffff;strokeColor=#6F0000;" vertex="1" parent="1">
                    <mxGeometry x="490" y="480" width="80" height="80" as="geometry"/>
                </mxCell>
                <mxCell id="10" value="&amp;gt;30" style="rhombus;whiteSpace=wrap;html=1;fillColor=#a20025;fontColor=#ffffff;strokeColor=#6F0000;" vertex="1" parent="1">
                    <mxGeometry x="120" y="470" width="80" height="80" as="geometry"/>
                </mxCell>
                <mxCell id="12" value="se ingresan las 5 notas&amp;nbsp;&lt;br&gt;y el codigo del estudiante" style="shape=parallelogram;perimeter=parallelogramPerimeter;whiteSpace=wrap;html=1;fixedSize=1;fillColor=#60a917;fontColor=#ffffff;strokeColor=#2D7600;" vertex="1" parent="1">
                    <mxGeometry x="251.5" y="170" width="176" height="60" as="geometry"/>
                </mxCell>
                <mxCell id="15" value="True" style="text;html=1;strokeColor=none;fillColor=none;align=center;verticalAlign=middle;whiteSpace=wrap;rounded=0;" vertex="1" parent="1">
                    <mxGeometry x="500" y="385" width="60" height="30" as="geometry"/>
                </mxCell>
                <mxCell id="16" value="" style="edgeStyle=none;html=1;endArrow=none;" edge="1" parent="1" source="5" target="15">
                    <mxGeometry relative="1" as="geometry">
                        <mxPoint x="415" y="330" as="sourcePoint"/>
                        <mxPoint x="530" y="480" as="targetPoint"/>
                        <Array as="points">
                            <mxPoint x="480" y="330"/>
                            <mxPoint x="530" y="330"/>
                        </Array>
                    </mxGeometry>
                </mxCell>
                <mxCell id="17" value="False" style="text;html=1;strokeColor=none;fillColor=none;align=center;verticalAlign=middle;whiteSpace=wrap;rounded=0;" vertex="1" parent="1">
                    <mxGeometry x="130" y="385" width="60" height="30" as="geometry"/>
                </mxCell>
                <mxCell id="20" value="Fin" style="ellipse;whiteSpace=wrap;html=1;fillColor=#6a00ff;fontColor=#ffffff;strokeColor=#3700CC;" vertex="1" parent="1">
                    <mxGeometry x="294" y="600" width="106" height="60" as="geometry"/>
                </mxCell>
                <mxCell id="21" value="" style="edgeStyle=none;html=1;exitX=0.5;exitY=1;exitDx=0;exitDy=0;endArrow=none;" edge="1" parent="1" source="8" target="20">
                    <mxGeometry relative="1" as="geometry">
                        <mxPoint x="340" y="630" as="targetPoint"/>
                        <mxPoint x="530" y="560" as="sourcePoint"/>
                        <Array as="points">
                            <mxPoint x="530" y="630"/>
                        </Array>
                    </mxGeometry>
                </mxCell>
                <mxCell id="22" value="" style="endArrow=none;html=1;entryX=0.5;entryY=1;entryDx=0;entryDy=0;" edge="1" parent="1" target="10">
                    <mxGeometry width="50" height="50" relative="1" as="geometry">
                        <mxPoint x="290" y="630" as="sourcePoint"/>
                        <mxPoint x="190" y="570" as="targetPoint"/>
                        <Array as="points">
                            <mxPoint x="160" y="630"/>
                        </Array>
                    </mxGeometry>
                </mxCell>
            </root>
        </mxGraphModel>
    </diagram>
</mxfile>